# xmcd CD database file
# Generated: Fri Jun 27 09:18:24 2003 by KSCD
# 
# Track frame offsets:
#       150
#       12507
#       25040
#       37865
#       50140
#       62215
#       75082
#       88305
#       99735
#       112190
#
# Disc length: 1653 seconds
#
# Revision: 1
# Processed by: cddbd v1.4PL0 Copyright (c) Steve Scherf et al.
# Submitted via: Kscd 1.3.3
#
DISCID=7c06730a
DTITLE=Grandpa Jones - Country Music Hall of Fame 1978
DYEAR=1900
DGENRE=
TTITLE0=
TTITLE1=
TTITLE2=Old Rattler
TTITLE3=
TTITLE4=
TTITLE5=
TTITLE6=
TTITLE7=
TTITLE8=
TTITLE9=
EXTD=
EXTT0=
EXTT1=
EXTT2=
EXTT3=
EXTT4=
EXTT5=
EXTT6=
EXTT7=
EXTT8=
EXTT9=
PLAYORDER=
